<svg width="288" height="75" xmlns="http://www.w3.org/2000/svg" xmlns:xlink="http://www.w3.org/1999/xlink" xml:space="preserve" overflow="hidden"><g transform="translate(-954 -27)"><path d="M75.5757 56.4806C73.8198 56.4806 72.2468 55.4929 71.4786 53.9199L61.9311 33.9834 52.3835 53.9199C51.6153 55.4929 50.0424 56.4806 48.2865 56.4806L48.2865 56.4806C46.5306 56.4806 44.9576 55.4929 44.1894 53.9199L34.6419 33.9834 28.2037 47.4451 32.5568 47.4451C35.0443 47.4451 37.0928 49.4936 37.0928 51.9811 37.0928 54.4686 35.0443 56.5171 32.5568 56.5171L21.0339 56.5171C19.4609 56.5171 18.0343 55.7124 17.1929 54.3955 16.3516 53.0786 16.2784 51.4324 16.9368 50.0058L30.5814 21.5094C31.3496 19.9365 32.9226 18.9488 34.6785 18.9488L34.6785 18.9488C36.4343 18.9488 38.0073 19.9365 38.7755 21.5094L48.3231 41.4459 57.8706 21.5094C58.6388 19.9365 60.2118 18.9488 61.9677 18.9488L61.9677 18.9488C63.7235 18.9488 65.2965 19.9365 66.0647 21.5094L75.6122 41.4459 85.1598 21.5094C86.2572 19.2414 88.9642 18.2903 91.1956 19.3878 93.4636 20.4852 94.4147 23.1921 93.3173 25.4236L79.6727 53.9199C78.9045 55.4929 77.3315 56.4806 75.5757 56.4806Z" fill="#FFFFFF" transform="matrix(1.01053 0 0 1 954 27.0963)"/><path d="M267.258 46.5306C267.258 43.531 265.978 41.6654 263.052 41.6654 260.125 41.6654 260.893 42.1044 260.381 42.5799L260.381 41.8849 257.382 41.8849 257.382 52.4933 260.381 52.4933 260.381 46.6769C260.381 44.8479 261.113 44.2626 262.32 44.2626 263.527 44.2626 264.259 44.8113 264.259 46.7135L264.259 52.4567 267.258 52.4567 267.258 46.4575ZM248.236 46.0185C248.346 44.9576 249.005 44.1163 250.102 44.1163 251.199 44.1163 252.041 45.0674 252.151 46.0185L248.236 46.0185ZM250.248 41.702C247.358 41.702 245.2 43.97 245.2 47.2622 245.2 50.5545 247.285 52.7859 250.541 52.7859 253.797 52.7859 253.687 52.164 254.601 51.0666L252.48 49.4205C252.041 49.896 251.346 50.1521 250.541 50.1521 249.736 50.1521 248.31 49.6034 248.2 48.1402L255.004 48.1402C255.004 47.9207 255.04 47.6646 255.04 47.2622 255.04 44.226 253.285 41.702 250.248 41.702M242.822 37.7878 239.823 39.1779 239.823 42.5067C239.274 42.0312 238.433 41.6654 237.409 41.6654 234.592 41.6654 232.982 43.8968 232.982 47.0793 232.982 50.2618 234.958 52.7493 237.409 52.7493 239.859 52.7493 239.238 52.3104 239.823 51.8714L239.823 52.5298 242.822 52.5298 242.822 37.7878ZM237.994 50.1155C236.823 50.1155 236.055 49.201 236.055 47.0062 236.055 44.8113 236.677 44.2992 237.848 44.2992 239.018 44.2992 239.42 44.6284 239.859 45.2137L239.859 49.2376C239.42 49.7497 238.945 50.1155 238.03 50.1155M230.605 41.9214 227.605 41.9214 227.605 52.5298 230.605 52.5298 230.605 41.9214ZM229.105 37.861C228.19 37.861 227.385 38.5926 227.385 39.4705 227.385 40.3485 228.154 41.0801 229.105 41.0801 230.056 41.0801 230.824 40.3485 230.824 39.4705 230.824 38.5926 230.056 37.861 229.105 37.861M218.35 46.0185C218.46 44.9576 219.118 44.1163 220.216 44.1163 221.313 44.1163 222.154 45.0674 222.264 46.0185L218.35 46.0185ZM220.362 41.702C217.472 41.702 215.314 43.97 215.314 47.2622 215.314 50.5545 217.399 52.7859 220.655 52.7859 223.91 52.7859 223.801 52.164 224.715 51.0666L222.593 49.4205C222.154 49.896 221.459 50.1521 220.655 50.1521 219.85 50.1521 218.423 49.6034 218.313 48.1402L225.117 48.1402C225.117 47.9207 225.154 47.6646 225.154 47.2622 225.154 44.226 223.398 41.702 220.362 41.702M211.253 38.3731 209.936 45.2869C209.79 45.9453 209.644 47.0427 209.571 47.628 209.461 47.0427 209.241 45.9819 209.059 45.2869L207.266 38.3731 204.632 38.3731 202.84 45.2869C202.657 45.9819 202.437 47.0427 202.328 47.628 202.255 47.0427 202.072 45.9819 201.962 45.2869L200.645 38.3731 197.499 38.3731 200.645 52.5298 203.498 52.5298 205.4 45.2503C205.62 44.4089 205.839 43.3481 205.913 42.836 205.986 43.3481 206.205 44.4089 206.425 45.2503L208.29 52.5298 211.253 52.5298 214.399 38.3731 211.29 38.3731ZM196.036 46.7501 191.097 46.7501 191.097 49.3473 196.036 49.3473 196.036 46.7501ZM184.22 50.1155C183.05 50.1155 182.281 49.201 182.281 47.0062 182.281 44.8113 182.903 44.2992 184.074 44.2992 185.245 44.2992 185.647 44.6284 186.086 45.2137L186.086 49.2376C185.647 49.7497 185.171 50.1155 184.257 50.1155M189.049 41.9214 186.049 41.9214 186.049 42.5433C185.501 42.0678 184.659 41.702 183.635 41.702 180.818 41.702 179.209 43.9334 179.209 47.1159 179.209 50.2984 181.184 52.7859 183.635 52.7859 186.086 52.7859 185.464 52.3469 186.049 51.908 186.049 53.5541 185.427 54.0662 183.086 54.3589L184.147 56.4806C188.134 56.0782 189.049 54.2857 189.049 50.774L189.049 41.958ZM176.209 41.702C175.148 41.702 174.38 42.1409 173.868 42.6165L173.868 41.9214 170.868 41.9214 170.868 52.5298 173.868 52.5298 173.868 46.7867C173.868 44.9576 174.636 44.4821 175.807 44.4821 176.977 44.4821 177.05 44.7747 177.526 45.1771L178.294 42.4336C177.892 42.0312 177.16 41.702 176.209 41.702M161.723 46.0185C161.833 44.9576 162.491 44.1163 163.589 44.1163 164.686 44.1163 165.528 45.0674 165.637 46.0185L161.723 46.0185ZM163.735 41.702C160.845 41.702 158.687 43.97 158.687 47.2622 158.687 50.5545 160.772 52.7859 164.028 52.7859 167.283 52.7859 167.174 52.164 168.088 51.0666L165.967 49.4205C165.528 49.896 164.833 50.1521 164.028 50.1521 163.223 50.1521 161.796 49.6034 161.687 48.1402L168.491 48.1402C168.491 47.9207 168.527 47.6646 168.527 47.2622 168.527 44.226 166.771 41.702 163.735 41.702M152.102 50.1155C151.224 50.1155 150.529 49.7863 150.09 49.201L150.09 45.2137C150.529 44.7016 151.005 44.3358 151.92 44.3358 152.834 44.3358 153.858 45.2503 153.858 47.4451 153.858 49.64 153.236 50.1521 152.066 50.1521M152.468 41.702C151.371 41.702 150.639 42.1409 150.054 42.5799L150.054 37.7878 147.054 39.1779 147.054 52.5298 150.054 52.5298 150.054 51.908C150.603 52.3835 151.444 52.7493 152.468 52.7493 155.285 52.7493 156.894 50.5179 156.894 47.3354 156.894 44.1529 154.919 41.6654 152.468 41.6654M144.311 46.5306C144.311 43.531 143.177 41.6654 140.25 41.6654 137.324 41.6654 137.397 42.2873 136.629 43.0189 135.787 42.0312 134.946 41.6654 133.483 41.6654 132.02 41.6654 131.508 42.1044 130.995 42.5799L130.995 41.8849 127.996 41.8849 127.996 52.4933 130.995 52.4933 130.995 46.6769C130.995 44.8479 131.617 44.2626 132.824 44.2626 134.032 44.2626 134.653 44.8113 134.653 46.7135L134.653 52.4567 137.653 52.4567 137.653 46.6404C137.653 44.8113 138.275 44.226 139.482 44.226 140.689 44.226 141.311 44.7747 141.311 46.6769L141.311 52.4201 144.311 52.4201 144.311 46.4209ZM119.948 38.3731 117.022 38.3731 111.205 52.5298 114.461 52.5298 115.668 49.3839 121.192 49.3839 122.399 52.5298 125.728 52.5298 119.985 38.3731ZM116.692 46.6769 117.68 44.1163C117.973 43.2749 118.302 42.4336 118.448 41.9214 118.595 42.4336 118.887 43.3115 119.216 44.1163L120.204 46.6769 116.729 46.6769Z" fill="#FFFFFF" transform="matrix(1.01053 0 0 1 954 27.0963)"/><path d="M151.773 18.9488 148.737 18.9488 148.737 24.3627 142.518 24.3627 142.518 18.9488 139.482 18.9488 139.482 33.1055 142.518 33.1055 142.518 27.1429 148.737 27.1429 148.737 33.1055 151.773 33.1055 151.773 18.9488ZM137.434 18.9488 125.691 18.9488 125.691 21.7289 130.044 21.7289 130.044 33.1055 133.08 33.1055 133.08 21.7289 137.434 21.7289 137.434 18.9488ZM118.156 30.5449C116.034 30.5449 114.571 28.8987 114.571 26.0454 114.571 23.1921 115.961 21.5826 118.082 21.5826 120.204 21.5826 121.667 23.2287 121.667 26.082 121.667 28.9353 120.277 30.5449 118.156 30.5449M118.156 18.7293C114.205 18.7293 111.461 21.4729 111.461 26.0454 111.461 30.618 114.168 33.325 118.119 33.325 122.07 33.325 124.813 30.5814 124.813 26.0089 124.813 21.4363 122.106 18.7293 118.156 18.7293" fill="#FFFFFF" transform="matrix(1.01053 0 0 1 954 27.0963)"/></g></svg>