<svg width="4767" height="2351" xmlns="http://www.w3.org/2000/svg" xmlns:xlink="http://www.w3.org/1999/xlink" xml:space="preserve" overflow="hidden"><defs><clipPath id="clip0"><rect x="-1" y="-4" width="4767" height="2351"/></clipPath></defs><g clip-path="url(#clip0)" transform="translate(1 4)"><rect x="347" y="0" width="544" height="363" fill="#FDCBA3"/><path d="M1077 181.5C1077 281.74 995.74 363 895.5 363 835.364 363 775.228 362.636 715.093 361.908 714.364 301.772 714 241.636 714 181.5 714 81.2603 795.26 0 895.5 0 995.74 0 1077 81.2603 1077 181.5Z" fill="#FEE5D1" fill-rule="evenodd"/><path d="M714 357C714 554.166 553.942 714 356.5 714 159.058 714-1.00012 554.166-1.00012 357-1.00012 159.834 159.058 0 356.5 0 553.942 0 714 159.834 714 357Z" fill="#FCB175" fill-rule="evenodd"/><path d="M2666 183 2666 537C2666 634.754 2586.75 714 2489 714L2312 714 2312 5.99984 2489 5.99984C2586.75 5.99984 2666 85.2454 2666 183Z" fill="#FCB175" fill-rule="evenodd"/><path d="M2315 714C2217.25 714 2138 634.978 2138 537.5 2138 440.022 2217.25 361 2315 361Z" fill="#FEE5D1" fill-rule="evenodd"/><path d="M3793 537.499C3793 634.978 3713.98 714 3616.5 714L2842.5 714C2745.02 714 2666 634.978 2666 537.499L2666 537.499C2666 440.021 2745.02 360.999 2842.5 360.999L3616.5 361C3713.98 361 3793 440.022 3793 537.501Z" fill="#FEE5D1" fill-rule="evenodd"/><path d="M3439-4.00013C3439 197.584 3278.94 361 3081.5 361 2884.06 361 2724 197.584 2724-4.00013Z" fill="#FCB175" fill-rule="evenodd"/><path d="M4583.5 361 3621.5 361C3520.71 361 3439 279.292 3439 178.499L3439-4.00012 4766-4.00012 4766 178.499C4766 279.292 4684.29 361 4583.5 361Z" fill="#FEE5D1" fill-rule="evenodd"/><rect x="0" y="0" width="544" height="362" fill="#FDCBA3" transform="matrix(1 -1.22465e-16 -1.22465e-16 -1 3508 1081)"/><path d="M0 181C-2.31074e-14 81.0364 81.2603-2.30437e-14 181.5-4.60874e-14 241.636-1.53625e-14 301.772 0.363161 361.908 1.08948 362.636 61.0597 363 121.03 363 181 363 280.964 281.74 362 181.5 362 81.2603 362 0 280.964 0 181Z" fill="#FEE5D1" fill-rule="evenodd" transform="matrix(1 -1.22465e-16 -1.22465e-16 -1 3322 1081)"/><path d="M0 357C-4.54509e-14 159.834 159.834-4.54509e-14 357-9.09017e-14 554.166-1.81803e-13 714 159.834 714 357 714 554.166 554.166 714 357 714 159.834 714-2.27254e-13 554.166 0 357Z" fill="#FCB175" fill-rule="evenodd" transform="matrix(1 -1.22465e-16 -1.22465e-16 -1 3685 1433)"/><path d="M2318.76 1630 3092.24 1630 3093.82 1630.16 3269 1630.16 3269 1806.5 3269 1806.5 3269 1806.58C3269 1904.01 3189.9 1983 3092.32 1983L3092.28 1983 3092.24 1983 2318.76 1983C2221.14 1983 2142 1903.98 2142 1806.5L2142 1806.5C2142 1709.02 2221.14 1630 2318.76 1630Z" fill="#FCB175" fill-rule="evenodd"/><path d="M3980 2186.29 3980 1598.71C3980 1509.95 4051.95 1438 4140.71 1438L4400 1438 4400 2347 4140.71 2347C4051.95 2347 3980 2275.05 3980 2186.29Z" fill="#FCB175" fill-rule="evenodd"/><path d="M0 357.5C-4.55145e-14 160.058 160.058-4.55145e-14 357.5-9.1029e-14 554.942-1.82058e-13 715 160.058 715 357.5 715 554.942 554.942 715 357.5 715 160.058 715-2.27573e-13 554.942 0 357.5Z" fill="#FDCBA3" fill-rule="evenodd" transform="matrix(1 -1.22465e-16 -1.22465e-16 -1 3269 2013)"/></g></svg>