<svg width="1508" height="1146" xmlns="http://www.w3.org/2000/svg" xmlns:xlink="http://www.w3.org/1999/xlink" xml:space="preserve" overflow="hidden"><g transform="translate(-3100 -1189)"><path d="M4089 2178.5C4089 2264.93 4018.93 2335 3932.5 2335L3256.5 2335C3170.07 2335 3100 2264.93 3100 2178.5L3100 2178.5C3100 2092.07 3170.07 2022 3256.5 2022L3932.5 2022C4018.93 2022 4089 2092.07 4089 2178.5Z" fill="#FCB175" fill-rule="evenodd" fill-opacity="0.843137"/><path d="M3622 1710C3708.16 1710 3778 1779.84 3778 1866 3778 1917.69 3777.69 1969.37 3777.06 2021.06 3725.37 2021.69 3673.69 2022 3622 2022 3535.84 2022 3466 1952.16 3466 1866 3466 1779.84 3535.84 1710 3622 1710Z" fill="#FDCBA3" fill-rule="evenodd"/><path d="M4091 1554.5 4091 1865.5C4091 1951.93 4020.93 2022 3934.5 2022L3778 2022 3778 1398 3934.5 1398C4020.93 1398 4091 1468.07 4091 1554.5Z" fill="#FEE5D1" fill-rule="evenodd"/><path d="M4404 1813C4231.69 1813 4092 1673.31 4092 1501 4092 1328.69 4231.69 1189 4404 1189Z" fill="#FFFFFF" fill-rule="evenodd"/><path d="M4350 2335C4207.51 2335 4092 2219.49 4092 2077 4092 1991.52 4092.52 1906.04 4093.55 1820.55 4179.04 1819.52 4264.52 1819 4350 1819 4492.49 1819 4608 1934.51 4608 2077 4608 2219.49 4492.49 2335 4350 2335Z" fill="#FDCBA3" fill-rule="evenodd"/></g></svg>