<svg width="1792" height="1146" xmlns="http://www.w3.org/2000/svg" xmlns:xlink="http://www.w3.org/1999/xlink" xml:space="preserve" overflow="hidden"><defs><clipPath id="clip0"><rect x="2816" y="1173" width="1792" height="1146"/></clipPath></defs><g clip-path="url(#clip0)" transform="translate(-2816 -1173)"><path d="M4089 2162.5C4089 2248.93 4018.93 2319 3932.5 2319L2973.5 2319C2887.07 2319 2817 2248.93 2817 2162.5L2817 2162.5C2817 2076.07 2887.07 2006 2973.5 2006L3932.5 2006C4018.93 2006 4089 2076.07 4089 2162.5Z" fill="#FA7D19" fill-rule="evenodd"/><path d="M3622 1694C3708.16 1694 3778 1763.84 3778 1850 3778 1901.69 3777.69 1953.37 3777.06 2005.06 3725.37 2005.69 3673.69 2006 3622 2006 3535.84 2006 3466 1936.16 3466 1850 3466 1763.84 3535.84 1694 3622 1694Z" fill="#FDCBA3" fill-rule="evenodd"/><path d="M4091 1538.5 4091 1849.5C4091 1935.93 4020.93 2006 3934.5 2006L3778 2006 3778 1382 3934.5 1382C4020.93 1382 4091 1452.07 4091 1538.5Z" fill="#FEE5D1" fill-rule="evenodd"/><path d="M4404 1797C4231.69 1797 4092 1657.31 4092 1485 4092 1312.69 4231.69 1173 4404 1173Z" fill="#FA7D19" fill-rule="evenodd"/><path d="M4350 2319C4207.51 2319 4092 2203.49 4092 2061 4092 1975.52 4092.52 1890.04 4093.55 1804.55 4179.04 1803.52 4264.52 1803 4350 1803 4492.49 1803 4608 1918.51 4608 2061 4608 2203.49 4492.49 2319 4350 2319Z" fill="#FDCBA3" fill-rule="evenodd"/></g></svg>