<svg width="867" height="1238" xmlns="http://www.w3.org/2000/svg" xmlns:xlink="http://www.w3.org/1999/xlink" xml:space="preserve" overflow="hidden"><defs><clipPath id="clip0"><rect x="3452" y="0" width="867" height="1238"/></clipPath></defs><g clip-path="url(#clip0)" transform="translate(-3452 0)"><path d="M4174.5 265C4254.31 265 4319 329.695 4319 409.5L4319 1092.5C4319 1172.31 4254.31 1237 4174.5 1237L4174.5 1237C4094.69 1237 4030 1172.31 4030 1092.5L4030 409.5C4030 329.695 4094.7 265 4174.5 265Z" fill="#FA7D19" fill-rule="evenodd" fill-opacity="0.843137"/><path d="M3741 698.5C3741 618.695 3805.69 554 3885.5 554 3933.38 554 3981.25 554.29 4029.13 554.87 4029.71 602.747 4030 650.623 4030 698.5 4030 778.305 3965.31 843 3885.5 843 3805.69 843 3741 778.305 3741 698.5Z" fill="#FDCBA3" fill-rule="evenodd"/><path d="M3596.5 265 3885.5 265C3965.31 265 4030 329.695 4030 409.5L4030 554 3452 554 3452 409.5C3452 329.695 3516.69 265 3596.5 265Z" fill="#FEE5D1" fill-rule="evenodd"/><path d="M4319-2.10067e-14C4319 159.61 4189.61 289 4030 289 3870.39 289 3741 159.61 3741 1.43856e-14Z" fill="#FA7D19" fill-rule="evenodd" fill-opacity="0.74902"/></g></svg>