<svg width="1238" height="867" xmlns="http://www.w3.org/2000/svg" xmlns:xlink="http://www.w3.org/1999/xlink" xml:space="preserve" overflow="hidden"><defs><clipPath id="clip0"><rect x="3162" y="621" width="1238" height="867"/></clipPath></defs><g clip-path="url(#clip0)" transform="translate(-3162 -621)"><path d="M4135 1343.5C4135 1423.31 4070.31 1488 3990.5 1488L3307.5 1488C3227.69 1488 3163 1423.31 3163 1343.5L3163 1343.5C3163 1263.69 3227.69 1199 3307.5 1199L3990.5 1199C4070.31 1199 4135 1263.7 4135 1343.5Z" fill="#FA7D19" fill-rule="evenodd" fill-opacity="0.843137"/><path d="M3701.5 910C3781.31 910 3846 974.695 3846 1054.5 3846 1102.38 3845.71 1150.25 3845.13 1198.13 3797.25 1198.71 3749.38 1199 3701.5 1199 3621.7 1199 3557 1134.3 3557 1054.5 3557 974.695 3621.7 910 3701.5 910Z" fill="#FDCBA3" fill-rule="evenodd"/><path d="M4135 765.5 4135 1054.5C4135 1134.31 4070.31 1199 3990.5 1199L3846 1199 3846 621 3990.5 621C4070.31 621 4135 685.695 4135 765.5Z" fill="#FEE5D1" fill-rule="evenodd"/><path d="M4400 1488C4240.39 1488 4111 1358.61 4111 1199 4111 1039.39 4240.39 910 4400 910Z" fill="#FA7D19" fill-rule="evenodd" fill-opacity="0.74902"/></g></svg>